/* XPM */
static char * EAST_xpm[] = {
"16 16 51 1",
" 	c #FFFFFF",
".	c #FBFBFB",
"+	c #212121",
"@	c #252525",
"#	c #333333",
"$	c #303030",
"%	c #292929",
"&	c #2D2D2D",
"*	c #242424",
"=	c #575757",
"-	c #3A3A3A",
";	c #404040",
">	c #585858",
",	c #4D4D4D",
"'	c #474747",
")	c #5E5E5E",
"!	c #565656",
"~	c #3E3E3E",
"{	c #FEFEFE",
"]	c #414141",
"^	c #5B5B5B",
"/	c #535353",
"(	c #616161",
"_	c #4A4A4A",
":	c #2F2F2F",
"<	c #313131",
"[	c #3F3F3F",
"}	c #4E4E4E",
"|	c #7D7D7D",
"1	c #FDFDFD",
"2	c #464646",
"3	c #2E2E2E",
"4	c #454545",
"5	c #626262",
"6	c #8D8D8D",
"7	c #676767",
"8	c #FAFAFA",
"9	c #4F4F4F",
"0	c #6D6D6D",
"a	c #515151",
"b	c #F9F9F9",
"c	c #393939",
"d	c #525252",
"e	c #5D5D5D",
"f	c #858585",
"g	c #FCFCFC",
"h	c #656565",
"i	c #545454",
"j	c #434343",
"k	c #4C4C4C",
"l	c #909090",
"                ",
"          ..    ",
"   +@#$%%&*=    ",
"   -@;>,,')!    ",
"   ~,      {    ",
"   ]^           ",
"   /(           ",
"   _:=#<['}|1   ",
"   23~#4=5,6{   ",
"   /7      8    ",
"   90           ",
"   ,a    8b     ",
"   'cd99e5f     ",
"  g*;hiijkl     ",
"    .           ",
"                "};
