/* XPM */
static char *_3af5973b8ff4e63b8f1359c105d508aVcMVx3Ppi6Coeegm[] = {
/* columns rows colors chars-per-pixel */
"40 40 2 1 ",
"  c black",
". c #C0C0C0",
/* pixels */
"........................................",
"........................................",
"........................................",
"........................................",
"........................................",
"........................................",
".................            ...........",
"...........                   ..........",
"..........                      ........",
".........                        .......",
".........         .........       ......",
".........    ................     ......",
".........    .................   .......",
".........     ..........................",
"........          ......................",
"........              ..................",
"........               .................",
".......     .          .................",
".......    ......     ..................",
".......    .............................",
".......    .............................",
".......    .............................",
".......    .............................",
".......    .............................",
".......     ............................",
".......      ...........................",
"........           ....   ..............",
".........                  .............",
"..........                 .............",
"............               .............",
"..................        ..............",
"........................................",
"........................................",
"........................................",
"........................................",
"........................................",
"........................................",
"........................................",
"........................................",
"........................................"
};
