/* XPM */
static char *_aedcb984ffb4de0f976f9bc15388ac66eCAXdwyIg8k6ZSH[] = {
/* columns rows colors chars-per-pixel */
"40 40 120 2 ",
"   c #777DF5",
".  c #7C7EF5",
"X  c #7B7AFC",
"o  c #7B79FF",
"O  c #7E7FFD",
"+  c #7E7CFF",
"@  c #7E7DFF",
"#  c #807AFF",
"$  c #6F8AF3",
"%  c #7C81F6",
"&  c #7E83F8",
"*  c #7E80FB",
"=  c #7D83FB",
"-  c #7B81FD",
";  c #7D81FC",
":  c #7C80FD",
">  c #7F81FC",
",  c #7D81FE",
"<  c #7F80FE",
"1  c #8184F5",
"2  c #8284FB",
"3  c #8082FD",
"4  c #8882FF",
"5  c #888BFC",
"6  c #F8FBF0",
"7  c #FAFCF1",
"8  c #FAFDF2",
"9  c #FBFDF2",
"0  c #FBFEF3",
"q  c #FDFEF0",
"w  c #FEFFF1",
"e  c #FCFCF2",
"r  c #FDFDF3",
"t  c #FCFEF3",
"y  c #FBFAF5",
"u  c #F9F9F7",
"i  c #FDF8F4",
"p  c #FDFAF5",
"a  c #FEFBF4",
"s  c #FFFAF7",
"d  c #FBFEF5",
"f  c #FCFCF4",
"g  c #FEFFF5",
"h  c #FFFFF6",
"j  c #FEFFF7",
"k  c #F6F0FF",
"l  c #FCFAFB",
"z  c #FBFDF8",
"x  c #FAFFF9",
"c  c #FBFDFA",
"v  c #FBFFFA",
"b  c #FDFCF8",
"n  c #FCFDF8",
"m  c #FEFDF8",
"M  c #FFFDF8",
"N  c #FFFCF9",
"B  c #FEFDF9",
"V  c #FFFDF9",
"C  c #FDFEF8",
"Z  c #FCFEF9",
"A  c #FDFEF9",
"S  c #FEFFF8",
"D  c #FFFFF8",
"F  c #FFFEF9",
"G  c #FEFFF9",
"H  c #FCFCFA",
"J  c #FDFCFA",
"K  c #FDFDFB",
"L  c #FFFDFA",
"P  c #FEFDFB",
"I  c #FCFEFB",
"U  c #FCFFFB",
"Y  c #FFFEFA",
"T  c #FEFFFA",
"R  c #FFFFFA",
"E  c #FFFEFB",
"W  c #FEFFFB",
"Q  c GhostWhite",
"!  c #F9F9FF",
"~  c #FAF8FF",
"^  c #FAFAFF",
"/  c #FDFBFC",
"(  c #FCF9FF",
")  c #FDFAFF",
"_  c #FCFBFF",
"`  c #FFFAFF",
"'  c #FEFBFF",
"]  c #FFFBFF",
"[  c #FBFFFC",
"{  c #FBFCFF",
"}  c #FAFDFF",
"|  c #FBFFFE",
" . c #FAFEFF",
".. c #FAFFFF",
"X. c #FBFFFF",
"o. c gray99",
"O. c #FDFDFD",
"+. c #FDFFFC",
"@. c #FCFEFD",
"#. c #FCFFFD",
"$. c #FEFEFC",
"%. c #FEFFFD",
"&. c #FFFFFD",
"*. c #FCFCFF",
"=. c #FDFCFF",
"-. c #FCFDFF",
";. c #FDFDFF",
":. c #FFFDFE",
">. c #FEFCFF",
",. c #FFFCFF",
"<. c #FEFDFF",
"1. c #FFFDFF",
"2. c #FDFFFE",
"3. c #FDFEFF",
"4. c #FCFFFF",
"5. c #FEFEFE",
"6. c #FEFEFF",
"7. c #FFFEFF",
"8. c #FEFFFF",
"9. c white",
/* pixels */
";.z { z { K z K ;.;.K ;.K ;.;.K ;.j ;.2 ;.;.;.K ;.K ;.K ;.K ;.K K j K ;.j ;.K ;.",
"K ^ 7 ;.K ;.K K ;.;.;.;.;.;.;.;.;.K ;.* ;.K ;.K ;.;.;.;.;.;.;.;.K K ;.K ;.7 ^ z ",
"_ 6 Q t ;.;.j l { z { { ;.{ z { ;.K ;.; ;.;.;.K ;.;.;.;.;.;.;.;.K K ;.;.7 ^ 6 ^ ",
"K ^ 7 _ ;.K _ j { { { ;.{ { { { ;.K ;.; ;.;.;.;.;.;.;.;.;.;.;.;.K ;.K ;.;.7 ^ z ",
";.j ;.;.j ;.j ;.;.;.;.;.;.;.;.;.{ j ;.; ;.;.;.K ;.;.;.;.;.;.;.;.;.t ;.j ;.;.j ;.",
";.;.K K ;.q _ j ;.;.;.K ;.;.K ;.{ K ;.; ;.;.;.K ;.;.K ;.;.;.K ;.K _ q ;.K ;.;.;.",
"K K / _ e ( t ;.;.K K ;.;.K ;.;.;.j ;.* ;.K ;.;.;.K ;.;.;.;.;.;.;.t _ t ;.j ;.K ",
";.;./ K _ j ;.K ;.K ;.;.K ;.K ;.;.j ;.3 ;.;.;.K K ;.K ;.K K ;.K K _ K ;.K K K ;.",
";.;.;.;.;.K ;.K ;.;.;.;.;.;.;.;.;.K ;.O ;.K ;.K ;.;.;.;.;.;.;.;.K ;.;.;.;.;.;.;.",
"K ;.;.;.;.;.;.;.;.;.;.;.;.;.;.;.;.K ;.O ;.;.;.;.;.;.;.;.;.;.;.;.;.;.;.;.;.;.;.K ",
";.;.;.;.;.;.;.K ;.;.;.;.;.;.;.;.;.K ;.3 ;.;.;.K ;.;.;.;.;.;.;.;.K ;.;.;.;.;.;.;.",
"K ;.K ;.;.;.;.;.;.;.;.;.;.;.;.;.;.j ;.3 ;.K ;.;.;.;.;.;.;.;.;.;.K ;.;.;.;.K ;.K ",
";.;.K ;.;.;.;.K ;.;.;.;.;.;.;.;.;.K ;.2 ;.K ;.K ;.;.;.;.;.;.;.;.K ;.;.;.;.;.;.;.",
"K ;.;.;.;.;.;.;.;.;.;.;.;.;.;.;.;.K ;.O ;.;.;.;.;.;.;.;.;.;.;.;.;.;.;.;.;.;.;.K ",
";.;.;.;.;.K ;.K ;.;.;.;.;.;.;.;.;.K ;.; ;.K ;.K ;.;.;.;.;.;.;.;.K ;.;.;.;.K ;.;.",
"K ;.;.;.;.;.;.;.;.;.;.;.;.;.;.;.;.K ;.# ;.;.;.;.;.;.;.;.;.;.;.;.K ;.;.;.;.;.;.K ",
";.;.{ ;.{ ;.;.;.;.;.;.;.;.;.;.;.j _ ;.& t K j ;.;.;.;.;.;.;.;.;.;.;.;.{ { { ;.;.",
"j K K K j K j K K K K K K K K K _ s K # K _ _ K K K K ;.K K K K K K j K K j K K ",
";.;.;.;.;.;.;.;.;.;.;.;.;.;.;.;.;.s ;.2 s u ;.;.;.;.;.;.;.;.;.;.;.;.;.;.;.;.;.;.",
"3 2 ; ; ; ; 3 2 3 3 O 3 3 3 3 3   4 % $ O 5 O 1 3 3 3 3 3 3 3 3 3 2 ; ; ; ; 2 3 ",
";.;.;.;.;.;.;.;.;.;.;.;.;.;.;.;.j e j X _ ;.t K ;.;.;.;.;.;.;.;.;.;.;.;.;.;.;.;.",
";.;.;.K ;.;.K ;.;.;.;.K ;.K K ;.K _ ;.1 ;.k ;.q ;.K ;.K ;.;.;.K K ;.;.;.;.;.;.K ",
";.;.;.;.;.;.;.;.;.;.;.;.;.;.;.;.j ;._ o j ;.;.K ;.;.;.;.;.;.;.;.;.;.;.;.;.;.;.;.",
"K ;.;.K K ;.K K ;.K ;.K ;.K ;.K ;.s K % K q ;.;.;.K ;.K ;.K ;.K K K ;.K K K ;.K ",
"K ;.;.;.;.;.;.;.;.;.;.;.;.;.;.;.;.K ;.O ;.;.;.;.;.;.;.;.;.;.;.;.;.;.;.;.;.;.;.K ",
";.;.;.;.;.K ;.K ;.;.;.;.;.;.;.;.;.K ;.O ;.K ;.K ;.;.;.;.;.;.;.;.K ;.K ;.;.;.;.;.",
"K ;.K ;.;.;.;.;.;.;.;.;.;.;.;.;.;.K ;.3 ;.K ;.;.;.;.;.;.;.;.;.;.;.;.;.;.;.K ;.K ",
";.;.;.;.;.;.;.K ;.;.;.;.;.;.;.;.;.K ;.2 ;.;.;.K ;.;.;.;.;.;.;.;.K ;.;.;.;.;.;.;.",
"K ;.;.;.;.;.;.;.;.;.;.;.;.;.;.;.;.K ;.2 ;.;.;.;.;.;.;.;.;.;.;.;.;.;.;.;.;.;.;.K ",
";.;.;.;.;.K ;.K ;.;.;.;.;.;.;.;.;.j ;.O ;.K ;.K ;.;.;.;.;.;.;.;.K ;.K ;.;.;.;.;.",
"K ;.;.;.;.;.;.;.;.;.;.;.;.;.;.;.;.K ;.; ;.;.;.;.;.;.;.;.;.;.;.;.;.;.;.;.;.;.;.K ",
";.;.K ;.;.;.;.K ;.;.;.;.;.;.;.;.;.K ;.# ;.K ;.K ;.;.;.;.;.;.;.;.K ;.;.;.;.K ;.;.",
";.;.K K _ j _ K ;.K K K ;.K K ;.;.K ;.2 ;.;.;.K ;.;.K ;.K ;.K K K ;.j _ K K K ;.",
"K K K _ t _ e ;.;.;.;.;.;.;.;.;.;.j ;.* ;.K ;.K ;.K K ;.;.;.;.;.;.t _ t _ K K ;.",
";.;.;.j _ q _ K ;.;.K ;.;.;.K ;.{ K ;.; ;.;.;.;.K ;.;.;.;.K ;.;.j _ q _ K ;.;.;.",
";.j ;.;.j ;.t ;.;.;.;.;.;.;.;.;.{ K ;.- ;.;.;.K ;.;.;.;.;.;.;.;.;.j _ j ;.;.j ;.",
"j ^ 7 ;.;.K _ s { { { { ;.{ { { { j ;.; ;.;.;.K ;.{ { { { { { { j _ K ;.;.t ^ z ",
"_ 6 ^ 7 ;.;.j / z { { ;.z { { { { K ;.; ;.;.;.;.{ { K ;.{ { K ;./ K ;.;.7 ^ 6 ;.",
"K ^ 7 ;.K ;.K K ;.;.;.;.;.;.;.;.;.j ;.* ;.K ;.K ;.;.;.;.;.;.;.;./ K ;.K ;.7 ^ K ",
";.d ^ z ;.K j K ;.;.K ;.K ;.K ;.;.K ;.3 ;.K ;.K K ;.K ;.K ;.K ;.s K d ;.d { z ;."
};
