/* XPM */
static char * NORTH_xpm[] = {
"16 16 63 1",
" 	c #FFFFFF",
".	c #F7F7F7",
"+	c #F4F4F4",
"@	c #D4D4D4",
"#	c #DCDCDC",
"$	c #4A4A4A",
"%	c #323232",
"&	c #C0C0C0",
"*	c #777777",
"=	c #F5F5F5",
"-	c #373737",
";	c #040404",
">	c #595959",
",	c #575757",
"'	c #474747",
")	c #ECECEC",
"!	c #404040",
"~	c #252525",
"{	c #494949",
"]	c #949494",
"^	c #4B4B4B",
"/	c #1F1F1F",
"(	c #D5D5D5",
"_	c #414141",
":	c #2B2B2B",
"<	c #B3B3B3",
"[	c #CECECE",
"}	c #454545",
"|	c #1B1B1B",
"1	c #C7C7C7",
"2	c #353535",
"3	c #2D2D2D",
"4	c #4C4C4C",
"5	c #525252",
"6	c #383838",
"7	c #161616",
"8	c #B2B2B2",
"9	c #282828",
"0	c #3C3C3C",
"a	c #DDDDDD",
"b	c #222222",
"c	c #4F4F4F",
"d	c #1C1C1C",
"e	c #BABABA",
"f	c #363636",
"g	c #A5A5A5",
"h	c #515151",
"i	c #242424",
"j	c #1A1A1A",
"k	c #434343",
"l	c #6D6D6D",
"m	c #202020",
"n	c #1E1E1E",
"o	c #5B5B5B",
"p	c #606060",
"q	c #262626",
"r	c #484848",
"s	c #3A3A3A",
"t	c #6B6B6B",
"u	c #989898",
"v	c #898989",
"w	c #CFCFCF",
"x	c #B0B0B0",
"                ",
"                ",
"  .+     @#     ",
"  $%     &*     ",
" =-;>    ,')    ",
"  !~{]   ^/(    ",
"  _:<{[  }|1    ",
"  23)45 =678    ",
" =90=a%[=_/1    ",
" =b2= c5 {de    ",
" =/f  a'ghie    ",
" )jk   l{}me    ",
"  no   8p2qe    ",
"  r5    <sta    ",
"  uv     wx)    ",
"          @=    "};
