/* XPM */
static char *d6c2b434723c424080d091d0440dc9cbX3D510o3Z58MOFo9[] = {
/* columns rows colors chars-per-pixel */
"40 40 2 1 ",
"  c black",
". c #808080",
/* pixels */
"........................................",
"........................................",
"........................................",
"........................................",
"........................................",
"........................................",
"........................................",
"........................................",
"........................................",
".............  ..........   ............",
"............    ........     ...........",
"............    ........     ...........",
"............     .......     ...........",
"...........       .....     ............",
"...........       ....     .............",
"..........        ....    ..............",
"..........        ...     ..............",
"..........         ..    ...............",
".........     .    ..    ...............",
".........    ..    .     ...............",
".........    ..          ...............",
".........    ..         ................",
".........    ..        .................",
"........     ..       ..................",
"........    ...      ...................",
".......     ....     ...................",
"......     ......   ....................",
"......     .............................",
"......    ..............................",
".......  ...............................",
"........................................",
"........................................",
"........................................",
"........................................",
"........................................",
"........................................",
"........................................",
"........................................",
"........................................",
"........................................"
};
