/* XPM */
static char * SOUTH_xpm[] = {
"16 16 49 1",
" 	c #FFFFFF",
".	c #F3F3F3",
"+	c #696969",
"@	c #5B5B5B",
"#	c #414141",
"$	c #484848",
"%	c #616161",
"&	c #B2B2B2",
"*	c #F9F9F9",
"=	c #BFBFBF",
"-	c #222222",
";	c #4A4A4A",
">	c #4C4C4C",
",	c #595959",
"'	c #767676",
")	c #878787",
"!	c #E6E6E6",
"~	c #DFDFDF",
"{	c #8E8E8E",
"]	c #2B2B2B",
"^	c #565656",
"/	c #353535",
"(	c #C3C3C3",
"_	c #202020",
":	c #585858",
"<	c #C9C9C9",
"[	c #D5D5D5",
"}	c #3D3D3D",
"|	c #313131",
"1	c #E8E8E8",
"2	c #C2C2C2",
"3	c #272727",
"4	c #575757",
"5	c #282828",
"6	c #6B6B6B",
"7	c #8B8B8B",
"8	c #4D4D4D",
"9	c #868686",
"0	c #BABABA",
"a	c #747474",
"b	c #CBCBCB",
"c	c #ABABAB",
"d	c #9B9B9B",
"e	c #2C2C2C",
"f	c #6A6A6A",
"g	c #323232",
"h	c #393939",
"i	c #262626",
"j	c #2E2E2E",
"                ",
"    .+@#$%&*    ",
"   =#-;>,')!    ",
"  ~{].          ",
"   ^/.          ",
"   (_:<.        ",
"    [}|$&       ",
"     12|34      ",
"       .(56     ",
"         789    ",
"         0$a    ",
"    (b[cde#1    ",
"   ~fghi]j      ",
"   ~((c[~       ",
"                ",
"                "};
