/* XPM */
static char *_d59cfcbbfbb4ca8fface878fd1f3fd78g9I0DZnr6TlJPf9[] = {
/* columns rows colors chars-per-pixel */
"40 40 2 1 ",
"  c black",
". c #808080",
/* pixels */
"........................................",
"........................................",
"........................................",
"........................................",
".....          .........................",
"....            ........................",
"....            ........................",
"....            ........................",
".....    ....  .........................",
".....    ...............................",
".....     ..............................",
".....     ..............................",
"......     .............................",
".......      ...........................",
"........      ..........................",
".........      .........................",
"....           .........................",
"...            .........................",
"...            .........................",
"....          ..........................",
"........................................",
"........................................",
"........................................",
"........................................",
"........................................",
"........................................",
"........................................",
"........................................",
"........................................",
"........................................",
"........................................",
"........................................",
"........................................",
"........................................",
"........................................",
"........................................",
"........................................",
"........................................",
"........................................",
"........................................"
};
