/* XPM */
static char *_4650899043148a1be5c6c4d559e32c2nq1U8f8qGSZ5cpsb[] = {
/* columns rows colors chars-per-pixel */
"16 16 31 1 ",
"  c gray37",
". c gray35",
"X c gray36",
"o c #555555",
"O c gray34",
"+ c #5B5B5B",
"@ c #535353",
"# c gray33",
"$ c gray22",
"% c #505050",
"& c gray28",
"* c #444444",
"= c #4B4B4B",
"- c #484848",
"; c #393939",
": c #3F3F3F",
"> c #373737",
", c #414141",
"< c #565656",
"1 c #3E3E3E",
"2 c #434343",
"3 c gray26",
"4 c gray23",
"5 c gray25",
"6 c gray21",
"7 c #3A3A3A",
"8 c #585858",
"9 c #606060",
"0 c gray27",
"q c #515151",
"w c #464646",
/* pixels */
" . XoX.OOOO+@##$",
"X%%%&%%%*==&==-;",
"o&&&%&===%===*:>",
".*=%==&&&&&==%,$",
"O&&&&&%%%%%*=%*>",
"<&&&=*==&&*=&&1;",
"@2&*,,,,**345*2;",
">>>>>>>>6>;7$$$>",
"O...XX8$9X+@.XoX",
"&&=*==,>O%==&&&&",
"%%&*&%0$.====%&&",
"===%%=,$X%**===&",
"&&&%%&1>O&==&&&&",
"==&&&*1;<%%=%&%*",
"111,1*&7q5w2,,11",
"$$$$$$>>>>7$$>>>"
};
