/* XPM */
static char *c0147d2ccc884178af809e44bd82a960umlDpSEVCifdEL25[] = {
/* columns rows colors chars-per-pixel */
"16 16 17 1 ",
"  c #5B5B5B",
". c gray37",
"X c #626262",
"o c #656565",
"O c DimGray",
"+ c gray43",
"@ c gray45",
"# c #777777",
"$ c gray47",
"% c gray50",
"& c #888888",
"* c gray56",
"= c #909090",
"- c gray59",
"; c #989898",
": c #9F9F9F",
"> c #A4A4A4",
/* pixels */
":-::=:-=--=;***.",
":&&&$&&&@%%#%%$X",
"=$#$&$%%%&&%%@+.",
";@%&$&$$$$#%%&+.",
"-$$$$$&&&&&+%&#.",
"=$$$%#%%$#@&$$OX",
"*@#@++++#@+oO@@.",
".......  .XXXX..",
"-;;-:;-.>;;*-:=:",
"$$%@%%@.-&%%$$$#",
"&&$@$&#.-%%%%&$$",
"%%%&&%+.:&@@%%&$",
"$$$&&$O.-$%%#$$$",
"%%$$$@OX=&&%&#&#",
"OOO@O##X&+$@++oO",
".X........X....."
};
