/* XPM */
static char *_8b46be5023f48818adf82a57df10c6azPI1AyLWN9yKgp5K[] = {
/* columns rows colors chars-per-pixel */
"16 16 34 1 ",
"  c #BCBCBC",
". c #B7B7B7",
"X c gray74",
"o c gray73",
"O c #B2B2B2",
"+ c #B6B6B6",
"@ c #B4B4B4",
"# c gray72",
"$ c #AFAFAF",
"% c #B1B1B1",
"& c gray69",
"* c #909090",
"= c #ACACAC",
"- c gray63",
"; c #9D9D9D",
": c gray65",
"> c gray64",
", c gray57",
"< c #989898",
"1 c #8E8E8E",
"2 c #9A9A9A",
"3 c gray56",
"4 c gray62",
"5 c #979797",
"6 c #9B9B9B",
"7 c gray58",
"8 c #8D8D8D",
"9 c gray75",
"0 c #BBBBBB",
"q c #B9B9B9",
"w c #9F9F9F",
"e c gray59",
"r c gray68",
"t c #A0A0A0",
/* pixels */
" .XoOo+@@@@#$%&*",
"o===-===;::-::>,",
"O---=-:::=:::;<1",
"+;:=::-----::=23",
"@-----=====;:=41",
"@---:;::--;:--5,",
"$;-422224467<4;,",
"1111111181,,**31",
"@+++oo+390q$.oOo",
"--:;::21@=::----",
"==-;-=w*+::::=--",
":::==:23o=;;:::-",
"---==-e1@-::----",
"::---;e,@==:=-=;",
"eee254-,r<t;22ee",
"**33331113,*3111"
};
