/* XPM */
static char *_c602eed5a6441d2bdcdbd8c4e3a4844pV44ULjZ63E2pIku[] = {
/* columns rows colors chars-per-pixel */
"40 40 2 1 ",
"  c black",
". c #C0C0C0",
/* pixels */
"........................................",
"........................................",
"........................................",
"........................................",
"........................................",
"........................................",
".....  .................................",
"....    .............................  .",
"....    ............................    ",
"....     ..........  ...............    ",
".....    .........    .............     ",
".....    .........    ............     .",
".....    ........     ............    ..",
".....     .......     ...........     ..",
"......    .......     ...........    ...",
"......    ......      ..........     ...",
"......    ......      .........     ....",
"......    .....       ........     .....",
"......    .....       .......     ......",
"......    ....        ......     .......",
"......     ...        .....     ........",
".......    ..         ....     .........",
".......    ..    .     ..     ..........",
".......          ..    ..    ...........",
"........        ...    .     ...........",
"........        ...         ............",
"........       ....        .............",
"........      .....       ..............",
"........     ......       ..............",
"........     ......      ...............",
".........   ........    ................",
".....................  .................",
"........................................",
"........................................",
"........................................",
"........................................",
"........................................",
"........................................",
"........................................",
"........................................"
};
