/* XPM */
static char * WEST_xpm[] = {
"16 16 57 1",
" 	c #FFFFFF",
".	c #DFDFDF",
"+	c #C3C3C3",
"@	c #F9F9F9",
"#	c #E1E1E1",
"$	c #C4C4C4",
"%	c #F3F3F3",
"&	c #C9C9C9",
"*	c #A7A7A7",
"=	c #D5D5D5",
"-	c #C0C0C0",
";	c #414141",
">	c #919191",
",	c #ABABAB",
"'	c #4C4C4C",
")	c #5F5F5F",
"!	c #363636",
"~	c #606060",
"{	c #B0B0B0",
"]	c #858585",
"^	c #3F3F3F",
"/	c #A3A3A3",
"(	c #1F1F1F",
"_	c #6F6F6F",
":	c #8C8C8C",
"<	c #9E9E9E",
"[	c #252525",
"}	c #9A9A9A",
"|	c #5C5C5C",
"1	c #404040",
"2	c #909090",
"3	c #B1B1B1",
"4	c #171717",
"5	c #353535",
"6	c #484848",
"7	c #2F2F2F",
"8	c #575757",
"9	c #A2A2A2",
"0	c #474747",
"a	c #383838",
"b	c #E8E8E8",
"c	c #5A5A5A",
"d	c #343434",
"e	c #676767",
"f	c #272727",
"g	c #181818",
"h	c #4D4D4D",
"i	c #303030",
"j	c #1D1D1D",
"k	c #030303",
"l	c #101010",
"m	c #B2B2B2",
"n	c #161616",
"o	c #BABABA",
"p	c #595959",
"q	c #535353",
"r	c #AAAAAA",
"                ",
"                ",
" .              ",
" +.             ",
"@#$%         &*=",
"-;>.        ,') ",
"%!~{       .]^. ",
" /(_+ .:   <[}  ",
" %|12 34+ ,56   ",
"  +789[0abcdb   ",
"  %efgh ^ij+    ",
"   ,kl  mn^     ",
"   opq%  .r.    ",
"                ",
"                ",
"                "};
